<svg width="22" height="23" viewBox="0 0 22 23" fill="none" xmlns="http://www.w3.org/2000/svg">
<path d="M6.44006 1.05994C6.27362 0.893504 6.04788 0.8 5.8125 0.8C5.57712 0.8 5.35138 0.893504 5.18494 1.05994C5.0185 1.22638 4.925 1.45212 4.925 1.6875V2.175H3.75C2.96761 2.175 2.21727 2.4858 1.66404 3.03904C1.1108 3.59227 0.8 4.34261 0.8 5.125V19.25C0.8 20.0324 1.1108 20.7827 1.66404 21.336C2.21727 21.8892 2.96761 22.2 3.75 22.2H18.25C19.0324 22.2 19.7827 21.8892 20.336 21.336C20.8892 20.7827 21.2 20.0324 21.2 19.25V5.125C21.2 4.34261 20.8892 3.59227 20.336 3.03904C19.7827 2.4858 19.0324 2.175 18.25 2.175H17.075V1.6875C17.075 1.45212 16.9815 1.22638 16.8151 1.05994C16.6486 0.893504 16.4229 0.8 16.1875 0.8C15.9521 0.8 15.7264 0.893504 15.5599 1.05994C15.3935 1.22638 15.3 1.45212 15.3 1.6875V2.175H6.7V1.6875C6.7 1.45212 6.6065 1.22638 6.44006 1.05994ZM2.91915 4.29415C3.1395 4.07379 3.43837 3.95 3.75 3.95H18.25C18.5616 3.95 18.8605 4.07379 19.0809 4.29415C19.3012 4.5145 19.425 4.81337 19.425 5.125V7.3H2.575V5.125C2.575 4.81337 2.69879 4.5145 2.91915 4.29415ZM2.575 19.25V9.075H19.425V19.25C19.425 19.5616 19.3012 19.8605 19.0809 20.0809C18.8605 20.3012 18.5616 20.425 18.25 20.425H3.75C3.43837 20.425 3.1395 20.3012 2.91915 20.0809C2.69879 19.8605 2.575 19.5616 2.575 19.25Z" fill="#4894FF" stroke="#4894FF" stroke-width="0.4"/>
</svg>
