<svg width="16" height="11" viewBox="0 0 16 11" fill="none" xmlns="http://www.w3.org/2000/svg">
<path fill-rule="evenodd" clip-rule="evenodd" d="M15.6384 1.4072C15.8604 1.52147 16 1.75026 16 1.99998V8.66665C16 8.91637 15.8604 9.14516 15.6384 9.25943C15.4163 9.3737 15.1491 9.35429 14.9458 9.20914L10.2792 5.8758C10.104 5.75066 10 5.54862 10 5.33332C10 5.11801 10.104 4.91597 10.2792 4.79083L14.9458 1.45749C15.1491 1.31234 15.4163 1.29293 15.6384 1.4072ZM11.8136 5.33332L14.6667 7.37119V3.29544L11.8136 5.33332Z" fill="#A3A3A3"/>
<path fill-rule="evenodd" clip-rule="evenodd" d="M2 1.33333C1.63181 1.33333 1.33333 1.63181 1.33333 2V8.66667C1.33333 9.03486 1.63181 9.33333 2 9.33333H9.33333C9.70152 9.33333 10 9.03486 10 8.66667V2C10 1.63181 9.70152 1.33333 9.33333 1.33333H2ZM0 2C0 0.89543 0.89543 0 2 0H9.33333C10.4379 0 11.3333 0.89543 11.3333 2V8.66667C11.3333 9.77124 10.4379 10.6667 9.33333 10.6667H2C0.89543 10.6667 0 9.77124 0 8.66667V2Z" fill="#A3A3A3"/>
</svg>
