<svg width="32" height="32" viewBox="0 0 32 32" fill="none" xmlns="http://www.w3.org/2000/svg">
<path fill-rule="evenodd" clip-rule="evenodd" d="M27.4576 10.1108C27.7907 10.2822 28 10.6254 28 11V21C28 21.3746 27.7907 21.7178 27.4576 21.8892C27.1245 22.0606 26.7236 22.0315 26.4188 21.8137L19.4188 16.8137C19.156 16.626 19 16.323 19 16C19 15.6771 19.156 15.374 19.4188 15.1863L26.4188 10.1863C26.7236 9.96855 27.1245 9.93943 27.4576 10.1108ZM21.7205 16L26 19.0568V12.9432L21.7205 16Z" fill="white"/>
<path fill-rule="evenodd" clip-rule="evenodd" d="M7 10C6.44772 10 6 10.4477 6 11V21C6 21.5523 6.44772 22 7 22H18C18.5523 22 19 21.5523 19 21V11C19 10.4477 18.5523 10 18 10H7ZM4 11C4 9.34315 5.34315 8 7 8H18C19.6569 8 21 9.34315 21 11V21C21 22.6569 19.6569 24 18 24H7C5.34315 24 4 22.6569 4 21V11Z" fill="white"/>
</svg>
