<svg width="14" height="14" viewBox="0 0 14 14" fill="none" xmlns="http://www.w3.org/2000/svg">
<path fill-rule="evenodd" clip-rule="evenodd" d="M2 1.33333C1.82319 1.33333 1.65362 1.40357 1.5286 1.5286C1.40357 1.65362 1.33333 1.82319 1.33333 2V11.0572L2.86193 9.5286C2.98695 9.40357 3.15652 9.33333 3.33333 9.33333H11.3333C11.5101 9.33333 11.6797 9.2631 11.8047 9.13807C11.9298 9.01305 12 8.84348 12 8.66667V2C12 1.82319 11.9298 1.65362 11.8047 1.5286C11.6797 1.40357 11.5101 1.33333 11.3333 1.33333H2ZM0.585786 0.585786C0.960859 0.210714 1.46957 0 2 0H11.3333C11.8638 0 12.3725 0.210714 12.7475 0.585786C13.1226 0.960859 13.3333 1.46957 13.3333 2V8.66667C13.3333 9.1971 13.1226 9.70581 12.7475 10.0809C12.3725 10.456 11.8638 10.6667 11.3333 10.6667H3.60948L1.13807 13.1381C0.947406 13.3287 0.660661 13.3858 0.411544 13.2826C0.162428 13.1794 0 12.9363 0 12.6667V2C0 1.46957 0.210714 0.960859 0.585786 0.585786Z" fill="#4894FF"/>
</svg>
