<svg width="32" height="32" viewBox="0 0 32 32" fill="none" xmlns="http://www.w3.org/2000/svg">
<path fill-rule="evenodd" clip-rule="evenodd" d="M16 6C13.8783 6 11.8434 6.84285 10.3431 8.34315C8.84285 9.84344 8 11.8783 8 14C8 17.0981 10.0157 20.1042 12.226 22.4373C13.3106 23.5822 14.3987 24.5195 15.2167 25.1708C15.5211 25.4133 15.787 25.6152 16 25.7726C16.213 25.6152 16.4789 25.4133 16.7833 25.1708C17.6013 24.5195 18.6894 23.5822 19.774 22.4373C21.9843 20.1042 24 17.0981 24 14C24 11.8783 23.1571 9.84344 21.6569 8.34315C20.1566 6.84285 18.1217 6 16 6ZM16 27C15.4453 27.8321 15.445 27.8319 15.4448 27.8317L15.4419 27.8298L15.4352 27.8253L15.4123 27.8098C15.3928 27.7966 15.3651 27.7776 15.3296 27.753C15.2585 27.7038 15.1565 27.6321 15.0278 27.5392C14.7705 27.3534 14.4064 27.0822 13.9708 26.7354C13.1013 26.043 11.9394 25.0428 10.774 23.8127C8.48426 21.3958 6 17.9019 6 14C6 11.3478 7.05357 8.8043 8.92893 6.92893C10.8043 5.05357 13.3478 4 16 4C18.6522 4 21.1957 5.05357 23.0711 6.92893C24.9464 8.8043 26 11.3478 26 14C26 17.9019 23.5157 21.3958 21.226 23.8127C20.0606 25.0428 18.8987 26.043 18.0292 26.7354C17.5936 27.0822 17.2295 27.3534 16.9722 27.5392C16.8435 27.6321 16.7415 27.7038 16.6704 27.753C16.6349 27.7776 16.6072 27.7966 16.5877 27.8098L16.5648 27.8253L16.5581 27.8298L16.556 27.8312C16.5557 27.8314 16.5547 27.8321 16 27ZM16 27L16.5547 27.8321C16.2188 28.056 15.7807 28.0556 15.4448 27.8317L16 27Z" fill="white"/>
<path fill-rule="evenodd" clip-rule="evenodd" d="M16 12C14.8954 12 14 12.8954 14 14C14 15.1046 14.8954 16 16 16C17.1046 16 18 15.1046 18 14C18 12.8954 17.1046 12 16 12ZM12 14C12 11.7909 13.7909 10 16 10C18.2091 10 20 11.7909 20 14C20 16.2091 18.2091 18 16 18C13.7909 18 12 16.2091 12 14Z" fill="white"/>
</svg>
