<svg width="14" height="16" viewBox="0 0 14 16" fill="none" xmlns="http://www.w3.org/2000/svg">
<path fill-rule="evenodd" clip-rule="evenodd" d="M6.66667 1.33333C5.25218 1.33333 3.89562 1.89524 2.89543 2.89543C1.89524 3.89562 1.33333 5.25218 1.33333 6.66667C1.33333 8.73204 2.67716 10.7362 4.15064 12.2915C4.87374 13.0548 5.59911 13.6796 6.14445 14.1139C6.34741 14.2755 6.52468 14.4101 6.66667 14.5151C6.80865 14.4101 6.98592 14.2755 7.18888 14.1139C7.73422 13.6796 8.45959 13.0548 9.1827 12.2915C10.6562 10.7362 12 8.73204 12 6.66667C12 5.25218 11.4381 3.89562 10.4379 2.89543C9.43771 1.89524 8.08115 1.33333 6.66667 1.33333ZM6.66667 15.3333C6.29687 15.888 6.2967 15.8879 6.29651 15.8878L6.2946 15.8865L6.29016 15.8835L6.27488 15.8732C6.2619 15.8644 6.24338 15.8517 6.21971 15.8353C6.17235 15.8025 6.10431 15.7547 6.01853 15.6928C5.84703 15.5689 5.60424 15.3881 5.31388 15.1569C4.73422 14.6954 3.95959 14.0286 3.1827 13.2085C1.65618 11.5972 0 9.26796 0 6.66667C3.97364e-08 4.89856 0.702379 3.20286 1.95262 1.95262C3.20286 0.702379 4.89856 0 6.66667 0C8.43478 0 10.1305 0.702379 11.3807 1.95262C12.631 3.20286 13.3333 4.89856 13.3333 6.66667C13.3333 9.26796 11.6772 11.5972 10.1506 13.2085C9.37374 14.0286 8.59911 14.6954 8.01945 15.1569C7.72909 15.3881 7.4863 15.5689 7.31481 15.6928C7.22902 15.7547 7.16098 15.8025 7.11363 15.8353C7.08995 15.8517 7.07144 15.8644 7.05845 15.8732L7.04318 15.8835L7.03873 15.8865L7.03733 15.8875C7.03713 15.8876 7.03647 15.888 6.66667 15.3333ZM6.66667 15.3333L7.03647 15.888C6.81253 16.0373 6.52044 16.0371 6.29651 15.8878L6.66667 15.3333Z" fill="#A3A3A3"/>
<path fill-rule="evenodd" clip-rule="evenodd" d="M6.66667 5.33333C5.93029 5.33333 5.33333 5.93029 5.33333 6.66667C5.33333 7.40305 5.93029 8 6.66667 8C7.40305 8 8 7.40305 8 6.66667C8 5.93029 7.40305 5.33333 6.66667 5.33333ZM4 6.66667C4 5.19391 5.19391 4 6.66667 4C8.13943 4 9.33333 5.19391 9.33333 6.66667C9.33333 8.13943 8.13943 9.33333 6.66667 9.33333C5.19391 9.33333 4 8.13943 4 6.66667Z" fill="#A3A3A3"/>
</svg>
